<svg class="logo" height="100%" width="100%" viewBox="0 0 346 400" xmlns="http://www.w3.org/2000/svg" xmlns:svg="http://www.w3.org/2000/svg">
  <g>
    <defs>
      <linearGradient id="MyGradient">
        <stop offset="0%" stop-color="#009933" />
        <stop offset="16.5%" stop-color="#33cc33" />
        <stop offset="50%" stop-color="#009933" />
        <stop offset="83.5%" stop-color="#33cc33" />
        <stop offset="100%" stop-color="#009933" />
      </linearGradient>
    </defs>
    <path id="mongr" d="M 23 50 q 50 -90 100 0 q 50 90 100 0 q 50 -90 100 0
    s 18 18 18 300 q -50 -90 -112 0 q -50 90 -112 0 q -50 -90 -112 0
    s 0 -282 18 -300" stroke="url(#MyGradient)" stroke-width="10"   fill="url(#MyGradient)" />
	<path id="db"
        fill="white" stroke="white" stroke-width="1"
        d="M 164.00,92.00
           C 164.00,92.00 164.00,305.00 164.00,305.00
             164.00,305.00 110.00,305.00 110.00,305.00
             110.00,305.00 110.00,294.00 110.00,294.00
             95.99,304.48 92.12,308.21 74.00,308.00
             59.76,307.83 46.29,299.28 42.67,285.00
             40.16,275.11 40.00,251.91 40.00,241.00
             40.00,241.00 40.00,178.00 40.00,178.00
             40.00,178.00 40.91,168.00 40.91,168.00
             41.47,159.79 40.62,151.73 44.67,144.00
             52.33,129.38 66.22,126.83 81.00,127.00
             85.57,127.06 88.66,127.53 93.00,129.09
             99.99,131.60 104.59,135.04 110.00,140.00
             110.00,140.00 110.00,92.00 110.00,92.00
             110.00,92.00 164.00,92.00 164.00,92.00 Z
           M 236.00,92.00
           C 236.00,92.00 236.00,141.00 236.00,141.00
             239.73,137.35 243.34,133.87 248.00,131.40
             262.09,123.91 287.82,124.89 298.47,138.04
             305.00,146.10 304.28,150.75 305.17,160.00
             305.17,160.00 306.00,171.00 306.00,171.00
             306.00,171.00 306.00,243.00 306.00,243.00
             306.00,254.32 306.09,276.85 302.45,287.00
             298.63,297.65 287.97,305.56 277.00,307.77
             273.56,308.16 268.59,308.04 265.00,307.77
             261.72,307.96 260.20,307.90 257.00,306.96
             247.30,304.11 242.96,299.94 236.00,293.00
             236.00,293.00 233.00,305.00 233.00,305.00
             233.00,305.00 182.00,305.00 182.00,305.00
             182.00,305.00 182.00,92.00 182.00,92.00
             182.00,92.00 236.00,92.00 236.00,92.00 Z
           M 96.74,161.30
           C 94.00,164.71 95.00,178.22 95.00,183.00
             95.00,183.00 95.00,263.00 95.00,263.00
             95.00,266.00 94.82,270.21 96.31,272.87
             98.67,277.05 104.35,277.26 107.27,273.70
             109.90,270.49 109.99,263.04 110.00,259.00
             110.00,259.00 110.00,174.00 110.00,174.00
             109.99,167.46 110.62,160.60 102.99,158.83
             100.37,158.98 98.55,159.04 96.74,161.30 Z
           M 236.00,175.00
           C 236.00,175.00 236.00,257.00 236.00,257.00
             236.01,260.68 236.42,269.85 238.17,272.87
             240.82,277.42 247.07,277.53 249.69,272.87
             250.77,270.93 251.96,252.33 252.00,249.00
             252.00,249.00 252.00,184.00 252.00,184.00
             252.00,184.00 251.09,174.00 251.09,174.00
             250.64,167.54 252.17,160.35 243.99,158.81
             235.62,159.70 236.08,168.06 236.00,175.00 Z" />
    Sorry, your browser does not support inline SVG.
  </g>
</svg>
