<svg class="logo" height="100%" width="100%" viewBox="0 0 346 400" xmlns="http://www.w3.org/2000/svg" xmlns:svg="http://www.w3.org/2000/svg">
  <g>
    <defs>
      <linearGradient id="MyGradient">
        <stop offset="0%" stop-color="#009933" />
        <stop offset="16.5%" stop-color="#33cc33" />
        <stop offset="50%" stop-color="#009933" />
        <stop offset="83.5%" stop-color="#33cc33" />
        <stop offset="100%" stop-color="#009933" />
      </linearGradient>
    </defs>
    <path id="mongr" d="M 23 50 q 50 -90 100 0 q 50 90 100 0 q 50 -90 100 0
    s 18 18 18 300 q -50 -90 -112 0 q -50 90 -112 0 q -50 -90 -112 0
    s 0 -282 18 -300" stroke="url(#MyGradient)" stroke-width="10"   fill="url(#MyGradient)" />
	<path id="Selection #3"
        fill="white" stroke="white" stroke-width="1"
        d="M 47.00,123.00
           C 47.00,123.00 47.00,257.00 47.00,257.00
             47.00,257.00 12.00,257.00 12.00,257.00
             12.00,257.00 12.00,123.00 12.00,123.00
             12.00,123.00 47.00,123.00 47.00,123.00 Z
           M 93.00,123.00
           C 93.00,123.00 93.00,153.00 93.00,153.00
             96.52,150.03 99.56,147.63 104.00,146.11
             112.32,143.25 126.65,144.74 132.36,152.09
             136.08,156.88 136.93,165.07 137.00,171.00
             137.00,171.00 137.00,216.00 137.00,216.00
             137.00,223.21 137.12,237.40 135.21,244.00
             131.48,256.88 116.03,262.28 104.00,257.87
             99.47,256.21 95.91,252.71 92.00,250.00
             92.00,250.00 91.00,257.00 91.00,257.00
             91.00,257.00 59.00,257.00 59.00,257.00
             59.00,257.00 59.00,123.00 59.00,123.00
             59.00,123.00 93.00,123.00 93.00,123.00 Z
           M 251.00,145.00
           C 251.00,145.00 251.00,184.00 251.00,184.00
             245.13,185.06 238.55,185.12 234.43,190.11
             231.00,194.25 231.01,199.91 231.00,205.00
             231.00,205.00 231.00,257.00 231.00,257.00
             231.00,257.00 197.00,257.00 197.00,257.00
             197.00,257.00 197.00,147.00 197.00,147.00
             197.00,147.00 231.00,147.00 231.00,147.00
             231.00,147.00 231.00,158.00 231.00,158.00
             235.48,149.66 241.49,145.24 251.00,145.00 Z
           M 304.00,146.27
           C 315.03,142.07 329.79,146.20 333.89,158.00
             334.90,160.89 335.98,174.49 336.00,178.00
             336.00,178.00 336.00,225.00 336.00,225.00
             335.94,229.65 334.74,242.93 333.19,247.00
             328.91,258.20 314.65,261.78 304.00,257.87
             299.10,256.07 295.64,252.56 292.00,249.00
             292.00,249.00 292.00,273.00 292.00,273.00
             292.00,273.00 258.00,273.00 258.00,273.00
             258.00,273.00 258.00,147.00 258.00,147.00
             258.00,147.00 293.00,147.00 293.00,147.00
             293.00,147.00 292.00,155.00 292.00,155.00
             295.92,151.17 298.74,148.27 304.00,146.27 Z
           M 93.00,175.00
           C 93.00,175.00 93.00,227.00 93.00,227.00
             93.00,229.23 92.86,232.88 93.74,234.89
             95.21,238.27 98.89,239.12 100.83,236.50
             102.24,234.59 102.00,230.34 102.00,228.00
             102.00,228.00 102.00,177.00 102.00,177.00
             101.99,172.21 102.75,168.51 97.95,166.08
             92.66,166.40 93.06,170.66 93.00,175.00 Z
           M 292.00,175.00
           C 292.00,175.00 292.00,227.00 292.00,227.00
             292.00,229.23 291.86,232.88 292.74,234.89
             294.21,238.27 297.89,239.12 299.83,236.50
             301.24,234.59 301.00,230.34 301.00,228.00
             301.00,228.00 301.00,181.00 301.00,181.00
             301.00,176.05 302.88,167.69 296.99,166.00
             291.93,167.23 292.07,170.40 292.00,175.00 Z
           M 189.00,190.00
           C 189.00,190.00 189.00,213.00 189.00,213.00
             189.00,213.00 144.00,213.00 144.00,213.00
             144.00,213.00 144.00,190.00 144.00,190.00
             144.00,190.00 189.00,190.00 189.00,190.00 Z" />
    Sorry, your browser does not support inline SVG.
  </g>
</svg>
