<svg class="logo" height="100%" width="100%" viewBox="0 0 346 400" xmlns="http://www.w3.org/2000/svg" xmlns:svg="http://www.w3.org/2000/svg">
  <g>
    <defs>
      <linearGradient id="MyGradient">
        <stop offset="0%" stop-color="#009933" />
        <stop offset="16.5%" stop-color="#33cc33" />
        <stop offset="50%" stop-color="#009933" />
        <stop offset="83.5%" stop-color="#33cc33" />
        <stop offset="100%" stop-color="#009933" />
      </linearGradient>
    </defs>
    <path id="mongr" d="M 23 50 q 50 -90 100 0 q 50 90 100 0 q 50 -90 100 0
    s 18 18 18 300 q -50 -90 -112 0 q -50 90 -112 0 q -50 -90 -112 0
    s 0 -282 18 -300" stroke="url(#MyGradient)" stroke-width="10"   fill="url(#MyGradient)" />
	<path id="t"
        fill="white" stroke="white" stroke-width="1"
        d="M 199.00,115.00
           C 199.00,115.00 199.00,145.00 199.00,145.00
             199.00,145.00 215.00,145.00 215.00,145.00
             215.00,145.00 215.00,176.00 215.00,176.00
             215.00,176.00 199.00,176.00 199.00,176.00
             199.00,176.00 199.00,264.00 199.00,264.00
             199.00,264.00 199.83,290.00 199.83,290.00
             200.11,292.93 199.65,297.29 201.17,299.77
             203.49,303.56 213.65,303.65 218.00,304.00
             218.00,304.00 218.00,335.00 218.00,335.00
             218.00,335.00 178.00,335.00 178.00,335.00
             168.45,334.99 158.75,333.71 151.00,327.61
             140.76,319.55 140.72,312.73 139.91,301.00
             139.91,301.00 139.00,291.00 139.00,291.00
             139.00,291.00 139.00,176.00 139.00,176.00
             139.00,176.00 126.00,176.00 126.00,176.00
             126.00,176.00 126.00,145.00 126.00,145.00
             126.00,145.00 139.00,145.00 139.00,145.00
             139.00,145.00 139.00,115.00 139.00,115.00
             139.00,115.00 199.00,115.00 199.00,115.00 Z" />
    Sorry, your browser does not support inline SVG.
  </g>
</svg>
