<svg class="logo" height="100%" width="100%" viewBox="0 0 346 400" xmlns="http://www.w3.org/2000/svg" xmlns:svg="http://www.w3.org/2000/svg">
  <g>
    <defs>
      <linearGradient id="MyGradient">
        <stop offset="0%" stop-color="#009933" />
        <stop offset="16.5%" stop-color="#33cc33" />
        <stop offset="50%" stop-color="#009933" />
        <stop offset="83.5%" stop-color="#33cc33" />
        <stop offset="100%" stop-color="#009933" />
      </linearGradient>
    </defs>
    <path id="mongr" d="M 23 50 q 50 -90 100 0 q 50 90 100 0 q 50 -90 100 0
    s 18 18 18 300 q -50 -90 -112 0 q -50 90 -112 0 q -50 -90 -112 0
    s 0 -282 18 -300" stroke="url(#MyGradient)" stroke-width="10"   fill="url(#MyGradient)" />
	<path id="Selection #5"
        fill="white" stroke="white" stroke-width="1"
        d="M 17.01,164.00
           C 15.93,161.34 15.84,156.15 15.50,153.00
             14.60,146.73 14.73,127.34 15.50,121.00
             15.92,118.40 16.01,114.25 16.89,112.02
             19.57,105.20 28.78,103.49 35.00,106.01
             37.42,106.98 39.01,108.39 41.00,110.00
             41.00,110.00 41.00,106.00 41.00,106.00
             41.00,106.00 62.00,106.00 62.00,106.00
             62.00,106.00 62.00,180.00 62.00,180.00
             62.00,180.00 41.00,180.00 41.00,180.00
             41.00,180.00 41.00,168.00 41.00,168.00
             33.41,173.97 21.20,174.30 17.01,164.00 Z
           M 113.00,111.00
           C 118.57,104.45 130.12,101.86 136.15,109.33
             138.99,112.85 138.98,116.73 139.00,121.00
             139.00,121.00 139.00,171.00 139.00,171.00
             139.00,171.00 119.00,171.00 119.00,171.00
             119.00,171.00 119.00,135.00 119.00,135.00
             119.00,127.78 120.32,122.11 116.00,116.00
             113.08,122.90 114.00,129.61 114.00,137.00
             114.00,137.00 114.00,171.00 114.00,171.00
             114.00,171.00 94.00,171.00 94.00,171.00
             94.00,171.00 94.00,132.00 94.00,132.00
             94.00,132.00 93.00,117.00 93.00,117.00
             87.67,118.70 88.04,120.86 88.00,126.00
             88.00,126.00 88.00,171.00 88.00,171.00
             88.00,171.00 68.00,171.00 68.00,171.00
             68.00,171.00 68.00,106.00 68.00,106.00
             68.00,106.00 88.00,106.00 88.00,106.00
             88.00,106.00 88.00,110.00 88.00,110.00
             97.08,102.65 104.58,103.08 113.00,111.00 Z
           M 165.00,105.00
           C 168.56,104.96 172.57,104.81 176.00,105.79
             193.60,110.79 191.17,129.36 191.00,144.00
             190.91,151.11 190.01,161.57 184.79,166.79
             178.96,172.62 171.54,172.09 164.00,172.00
             158.18,171.93 152.44,170.79 148.65,165.90
             144.56,160.62 145.42,155.97 144.77,150.00
             143.59,140.53 143.93,136.33 144.77,127.00
             145.92,115.73 146.44,109.28 159.00,105.53
             161.65,105.10 162.31,105.04 165.00,105.00 Z
           M 223.00,105.74
           C 228.34,103.70 236.67,105.08 239.99,110.10
             242.22,113.47 241.99,117.16 242.00,121.00
             242.00,121.00 242.00,171.00 242.00,171.00
             242.00,171.00 222.00,171.00 222.00,171.00
             222.00,171.00 222.00,127.00 222.00,127.00
             222.00,124.70 222.30,119.45 220.17,118.00
             216.92,115.79 217.01,123.73 217.00,125.00
             217.00,125.00 217.00,171.00 217.00,171.00
             217.00,171.00 196.00,171.00 196.00,171.00
             196.00,171.00 196.00,106.00 196.00,106.00
             196.00,106.00 217.00,106.00 217.00,106.00
             217.00,106.00 217.00,110.00 217.00,110.00
             218.93,108.29 220.52,106.68 223.00,105.74 Z
           M 265.00,163.90
           C 252.44,165.13 249.21,160.46 247.72,149.00
             246.81,142.01 246.92,135.04 247.00,128.00
             247.06,123.30 247.92,112.79 250.70,109.13
             254.22,104.51 262.94,103.96 268.00,106.01
             270.42,106.98 272.01,108.39 274.00,110.00
             274.00,110.00 274.00,106.00 274.00,106.00
             274.00,106.00 294.00,106.00 294.00,106.00
             294.00,106.00 294.00,152.00 294.00,152.00
             294.00,158.51 294.78,168.43 291.11,173.96
             285.43,182.53 275.00,182.10 266.00,182.00
             261.09,181.94 255.05,181.27 251.39,177.61
             248.26,174.47 248.10,171.12 248.00,167.00
             248.00,167.00 268.00,167.00 268.00,167.00
             272.21,175.11 272.99,163.79 273.00,161.00
             269.98,162.64 268.52,163.55 265.00,163.90 Z
           M 332.00,105.00
           C 332.00,108.50 332.43,124.58 331.40,126.69
             330.05,129.47 326.92,128.67 324.23,130.74
             320.82,133.35 321.02,137.15 321.00,141.00
             321.00,141.00 321.00,171.00 321.00,171.00
             321.00,171.00 300.00,171.00 300.00,171.00
             300.00,171.00 300.00,106.00 300.00,106.00
             300.00,106.00 321.00,106.00 321.00,106.00
             321.00,106.00 321.00,112.00 321.00,112.00
             323.99,106.75 326.05,105.63 332.00,105.00 Z
           M 36.00,124.00
           C 36.00,124.00 36.00,148.00 36.00,148.00
             36.00,153.45 34.95,156.89 39.00,161.00
             39.00,161.00 40.85,152.00 40.85,152.00
             40.85,152.00 40.85,120.00 40.85,120.00
             40.85,120.00 39.00,116.00 39.00,116.00
             36.04,119.00 36.08,119.83 36.00,124.00 Z
           M 165.00,126.00
           C 165.00,126.00 165.00,153.00 165.00,153.00
             165.08,157.17 165.04,158.00 168.00,161.00
             171.64,154.10 170.02,134.59 170.00,126.00
             169.99,121.32 170.25,120.27 168.00,116.00
             164.48,119.56 165.01,121.25 165.00,126.00 Z
           M 273.00,124.00
           C 272.99,122.38 273.36,117.39 270.85,117.34
             267.55,117.26 268.00,123.94 268.00,126.00
             267.99,130.08 267.55,147.24 268.59,149.89
             269.28,151.62 269.82,151.81 271.00,153.00
             274.41,146.53 273.05,131.75 273.00,124.00 Z
           M 134.00,215.00
           C 134.00,215.00 134.00,294.00 134.00,294.00
             134.00,294.00 114.59,293.41 114.59,293.41
             114.59,293.41 113.00,291.00 113.00,291.00
             109.24,293.41 107.61,294.70 103.00,294.96
             98.38,295.21 93.76,294.60 90.65,290.79
             87.87,287.38 88.21,284.03 87.72,280.00
             86.54,270.43 86.89,260.64 87.00,251.00
             87.05,247.14 87.90,236.07 89.85,233.10
             95.03,225.28 106.53,227.44 113.00,232.00
             113.00,232.00 113.00,215.00 113.00,215.00
             113.00,215.00 134.00,215.00 134.00,215.00 Z
           M 212.00,221.00
           C 212.00,221.00 212.00,231.00 212.00,231.00
             212.00,231.00 217.00,231.00 217.00,231.00
             217.00,231.00 217.00,241.00 217.00,241.00
             217.00,241.00 212.00,241.00 212.00,241.00
             212.00,241.00 212.00,283.00 212.00,283.00
             212.00,283.00 218.00,284.00 218.00,284.00
             218.00,284.00 218.00,294.00 218.00,294.00
             212.76,294.00 200.08,294.97 196.06,292.26
             190.82,288.74 191.01,282.58 191.00,277.00
             191.00,277.00 191.00,241.00 191.00,241.00
             191.00,241.00 187.00,241.00 187.00,241.00
             187.00,241.00 187.00,231.00 187.00,231.00
             187.00,231.00 191.00,231.00 191.00,231.00
             191.00,231.00 191.00,221.00 191.00,221.00
             191.00,221.00 212.00,221.00 212.00,221.00 Z
           M 143.39,234.19
           C 151.02,225.60 174.40,225.21 181.30,235.04
             184.87,240.13 183.63,245.31 184.17,251.00
             184.17,251.00 185.00,294.00 185.00,294.00
             185.00,294.00 165.59,293.41 165.59,293.41
             165.59,293.41 164.00,291.00 164.00,291.00
             162.29,292.35 161.11,293.46 159.00,294.26
             153.55,296.32 145.19,294.94 141.72,289.95
             138.53,285.34 138.11,272.15 140.03,267.00
             143.41,257.95 156.55,257.92 161.84,252.61
             165.49,248.67 163.66,243.42 161.84,239.00
             157.76,243.54 159.00,248.10 159.00,254.00
             159.00,254.00 139.00,254.00 139.00,254.00
             139.00,247.55 138.83,239.31 143.39,234.19 Z
           M 223.39,234.19
           C 231.02,225.60 254.40,225.21 261.30,235.04
             264.87,240.13 263.63,245.31 264.17,251.00
             264.17,251.00 265.00,294.00 265.00,294.00
             265.00,294.00 245.59,293.41 245.59,293.41
             245.59,293.41 244.00,291.00 244.00,291.00
             242.29,292.35 241.11,293.46 239.00,294.26
             233.55,296.32 225.19,294.94 221.72,289.95
             218.53,285.34 218.11,272.15 220.03,267.00
             223.41,257.95 236.55,257.92 241.84,252.61
             245.49,248.67 243.66,243.42 241.84,239.00
             237.76,243.54 239.00,248.10 239.00,254.00
             239.00,254.00 219.00,254.00 219.00,254.00
             219.00,247.55 218.83,239.31 223.39,234.19 Z
           M 108.00,249.00
           C 108.00,249.00 108.00,274.00 108.00,274.00
             108.00,276.06 107.79,279.89 109.01,281.58
             112.18,285.99 112.97,278.69 113.00,277.00
             113.00,277.00 113.00,247.00 113.00,247.00
             112.98,244.05 113.61,241.84 110.85,240.34
             107.24,241.93 108.01,245.51 108.00,249.00 Z
           M 160.07,268.04
           C 158.98,270.30 158.12,280.24 160.07,282.12
             163.26,285.45 163.97,277.39 164.00,276.00
             164.00,276.00 164.00,264.00 164.00,264.00
             162.30,265.38 161.26,266.00 160.07,268.04 Z
           M 240.07,268.04
           C 238.98,270.30 238.12,280.24 240.07,282.12
             243.26,285.45 243.97,277.39 244.00,276.00
             244.00,276.00 244.00,264.00 244.00,264.00
             242.30,265.38 241.26,266.00 240.07,268.04 Z" />
    Sorry, your browser does not support inline SVG.
  </g>
</svg>
