<svg class="logo" height="100%" width="100%" viewBox="0 0 346 400" xmlns="http://www.w3.org/2000/svg" xmlns:svg="http://www.w3.org/2000/svg">
  <g>
    <defs>
      <linearGradient id="MyGradient">
        <stop offset="0%" stop-color="#009933" />
        <stop offset="16.5%" stop-color="#33cc33" />
        <stop offset="50%" stop-color="#009933" />
        <stop offset="83.5%" stop-color="#33cc33" />
        <stop offset="100%" stop-color="#009933" />
      </linearGradient>
    </defs>
    <path id="mongr" d="M 23 50 q 50 -90 100 0 q 50 90 100 0 q 50 -90 100 0
    s 18 18 18 300 q -50 -90 -112 0 q -50 90 -112 0 q -50 -90 -112 0
    s 0 -282 18 -300" stroke="url(#MyGradient)" stroke-width="10"   fill="url(#MyGradient)" />
	<path id="q"
        fill="white" stroke="white" stroke-width="1"
        d="M 138.00,303.00
           C 123.09,302.82 109.45,294.01 103.93,280.00
             100.54,271.42 100.52,262.96 99.91,254.00
             99.91,254.00 99.00,244.00 99.00,244.00
             99.00,244.00 99.00,170.00 99.00,170.00
             99.00,157.51 98.72,133.12 103.07,122.00
             110.62,102.69 137.05,96.44 155.00,103.46
             164.78,107.29 168.78,111.78 176.00,119.00
             176.00,119.00 177.00,105.00 177.00,105.00
             177.00,105.00 236.00,105.00 236.00,105.00
             236.00,105.00 236.00,327.00 236.00,327.00
             236.00,327.00 176.00,327.00 176.00,327.00
             176.00,318.37 176.90,292.68 175.00,286.00
             166.25,302.38 154.51,303.19 138.00,303.00 Z
           M 159.83,149.00
           C 159.83,149.00 159.00,158.00 159.00,158.00
             159.00,158.00 159.00,230.00 159.00,230.00
             159.00,230.00 159.83,254.00 159.83,254.00
             160.15,257.28 159.79,260.80 161.15,263.89
             163.31,268.84 169.84,270.01 173.27,265.72
             175.90,262.43 175.99,255.10 176.00,251.00
             176.00,251.00 176.00,153.00 176.00,153.00
             175.97,146.09 175.99,137.69 167.99,135.83
             159.34,136.33 160.47,142.44 159.83,149.00 Z" />
    Sorry, your browser does not support inline SVG.
  </g>
</svg>
