<svg class="logo" height="100%" width="100%" viewBox="0 0 346 400" xmlns="http://www.w3.org/2000/svg" xmlns:svg="http://www.w3.org/2000/svg">
  <g>
    <defs>
      <linearGradient id="MyGradient">
        <stop offset="0%" stop-color="#009933" />
        <stop offset="16.5%" stop-color="#33cc33" />
        <stop offset="50%" stop-color="#009933" />
        <stop offset="83.5%" stop-color="#33cc33" />
        <stop offset="100%" stop-color="#009933" />
      </linearGradient>
    </defs>
    <path id="mongr" d="M 23 50 q 50 -90 100 0 q 50 90 100 0 q 50 -90 100 0
    s 18 18 18 300 q -50 -90 -112 0 q -50 90 -112 0 q -50 -90 -112 0
    s 0 -282 18 -300" stroke="url(#MyGradient)" stroke-width="10"   fill="url(#MyGradient)" />
	<path id="Selection #4"
        fill="white" stroke="white" stroke-width="1"
        d="M 56.00,161.00
           C 56.00,161.00 56.00,172.00 56.00,172.00
             61.99,169.75 70.11,168.08 73.83,175.04
             75.49,178.16 75.00,185.30 75.00,189.00
             75.00,189.00 75.00,220.00 75.00,220.00
             75.00,220.00 60.00,220.00 60.00,220.00
             60.00,220.00 60.00,196.00 60.00,196.00
             60.00,188.91 61.07,185.18 57.00,179.00
             57.00,179.00 56.00,220.00 56.00,220.00
             56.00,220.00 40.00,220.00 40.00,220.00
             40.00,220.00 40.00,161.00 40.00,161.00
             40.00,161.00 56.00,161.00 56.00,161.00 Z
           M 95.00,161.00
           C 95.00,161.00 95.00,169.00 95.00,169.00
             95.00,169.00 79.00,169.00 79.00,169.00
             79.00,169.00 79.00,161.00 79.00,161.00
             79.00,161.00 95.00,161.00 95.00,161.00 Z
           M 10.02,196.47
           C 4.15,191.77 2.26,184.04 5.15,177.04
             8.75,168.28 26.63,167.78 32.77,173.42
             36.55,176.88 36.00,181.35 36.00,186.00
             36.00,186.00 22.00,186.00 22.00,186.00
             22.00,186.00 21.00,179.00 21.00,179.00
             14.96,188.33 26.75,189.65 32.79,194.79
             36.24,197.72 36.87,200.68 36.98,205.00
             37.10,209.13 37.10,213.41 34.35,216.79
             29.73,222.46 14.71,222.47 9.21,218.15
             4.77,214.66 4.69,208.21 4.00,203.00
             4.00,203.00 18.00,203.00 18.00,203.00
             18.00,203.00 20.00,212.00 20.00,212.00
             27.64,203.77 15.31,200.71 10.02,196.47 Z
           M 135.00,182.00
           C 135.00,182.00 135.00,220.00 135.00,220.00
             135.00,220.00 120.00,220.00 120.00,220.00
             120.00,209.41 121.76,187.66 117.00,179.00
             117.00,179.00 116.00,220.00 116.00,220.00
             116.00,220.00 100.00,220.00 100.00,220.00
             100.00,220.00 100.00,171.00 100.00,171.00
             100.00,171.00 114.41,171.59 114.41,171.59
             114.41,171.59 116.00,174.00 116.00,174.00
             125.04,166.42 134.82,169.40 135.00,182.00 Z
           M 206.26,174.05
           C 208.78,177.73 208.00,186.49 208.00,191.00
             208.00,191.00 208.00,203.00 208.00,203.00
             208.00,212.06 208.25,223.37 195.00,220.73
             192.48,220.22 191.14,219.27 189.00,218.00
             189.00,218.00 189.00,227.00 189.00,227.00
             189.00,227.00 173.00,227.00 173.00,227.00
             173.00,227.00 173.00,171.00 173.00,171.00
             173.00,171.00 187.41,171.59 187.41,171.59
             187.41,171.59 189.00,174.05 189.00,174.05
             194.20,169.91 201.68,167.52 206.26,174.05 Z
           M 237.00,170.00
           C 237.00,173.11 237.58,184.22 236.01,186.28
             234.13,188.72 229.93,187.87 228.21,193.04
             228.21,193.04 228.21,220.00 228.21,220.00
             228.21,220.00 212.00,220.00 212.00,220.00
             212.00,220.00 212.00,171.00 212.00,171.00
             212.00,171.00 226.41,171.59 226.41,171.59
             226.41,171.59 228.00,174.00 228.00,174.00
             231.74,171.05 232.25,170.55 237.00,170.00 Z
           M 269.47,174.53
           C 272.68,177.78 272.80,180.76 273.42,185.00
             274.61,193.18 275.11,211.55 268.66,217.44
             264.47,221.28 259.29,221.06 254.00,221.00
             236.79,220.77 239.00,207.54 239.00,195.00
             239.00,184.44 237.32,175.57 249.00,170.65
             255.77,169.25 264.29,169.27 269.47,174.53 Z
           M 95.00,171.00
           C 95.00,171.00 95.00,220.00 95.00,220.00
             95.00,220.00 79.00,220.00 79.00,220.00
             79.00,220.00 79.00,171.00 79.00,171.00
             79.00,171.00 95.00,171.00 95.00,171.00 Z
           M 151.00,171.00
           C 151.00,171.00 155.00,200.00 155.00,200.00
             155.00,200.00 157.00,171.00 157.00,171.00
             157.00,171.00 171.00,171.00 171.00,171.00
             171.00,171.00 166.42,210.00 166.42,210.00
             165.69,215.03 165.33,221.79 160.79,224.99
             156.60,227.95 145.32,227.00 140.00,227.00
             140.02,221.59 139.12,219.35 145.00,218.00
             145.00,218.00 136.00,171.00 136.00,171.00
             136.00,171.00 151.00,171.00 151.00,171.00 Z
           M 288.00,171.00
           C 288.00,171.00 291.00,185.00 291.00,185.00
             291.00,185.00 293.00,171.00 293.00,171.00
             293.00,171.00 307.00,171.00 307.00,171.00
             307.00,171.00 302.21,193.00 302.21,193.00
             302.21,193.00 309.00,220.00 309.00,220.00
             309.00,220.00 293.00,220.00 293.00,220.00
             293.00,220.00 290.00,206.00 290.00,206.00
             290.00,206.00 288.00,220.00 288.00,220.00
             288.00,220.00 275.00,220.00 275.00,220.00
             275.00,220.00 280.16,193.00 280.16,193.00
             280.16,193.00 275.00,171.00 275.00,171.00
             275.00,171.00 288.00,171.00 288.00,171.00 Z
           M 324.00,171.00
           C 324.00,171.00 328.00,200.00 328.00,200.00
             328.00,200.00 330.00,171.00 330.00,171.00
             330.00,171.00 344.00,171.00 344.00,171.00
             344.00,171.00 339.42,210.00 339.42,210.00
             338.69,215.03 338.33,221.79 333.79,224.99
             329.60,227.95 318.32,227.00 313.00,227.00
             313.02,221.59 312.12,219.35 318.00,218.00
             318.00,218.00 309.00,171.00 309.00,171.00
             309.00,171.00 324.00,171.00 324.00,171.00 Z
           M 189.00,205.00
           C 189.06,208.46 188.93,209.19 191.00,212.00
             192.64,206.24 192.64,184.76 191.00,179.00
             187.59,183.63 188.90,198.78 189.00,205.00 Z
           M 255.00,180.00
           C 253.69,187.29 253.91,194.61 254.00,202.00
             254.06,206.28 253.62,209.29 258.00,211.00
             258.00,211.00 258.00,180.00 258.00,180.00
             258.00,180.00 255.00,180.00 255.00,180.00 Z" />
    Sorry, your browser does not support inline SVG.
  </g>
</svg>
